<svg width="28" height="12" viewBox="0 0 28 12" fill="none" xmlns="http://www.w3.org/2000/svg">
<path d="M5.9199 2.08171C6.23089 1.69273 6.44193 1.17044 6.38627 0.636719C5.93102 0.659356 5.37548 0.937062 5.05385 1.32635C4.76506 1.65972 4.50945 2.20388 4.57609 2.71522C5.08713 2.75955 5.5977 2.45978 5.9199 2.08171Z" fill="#000008"/>
<path d="M6.38048 2.81507C5.63833 2.77086 5.00732 3.23628 4.65291 3.23628C4.2983 3.23628 3.75557 2.83734 3.16857 2.8481C2.40455 2.85932 1.69562 3.2913 1.30791 3.97836C0.510465 5.35281 1.09747 7.39161 1.87295 8.51102C2.24953 9.06483 2.70339 9.67462 3.30141 9.65271C3.86644 9.63054 4.08791 9.28685 4.77473 9.28685C5.46105 9.28685 5.66054 9.65271 6.25866 9.64163C6.87893 9.63054 7.2667 9.08754 7.64329 8.5332C8.07531 7.90188 8.25216 7.29229 8.26328 7.25883C8.25216 7.24775 7.06724 6.79318 7.05625 5.43015C7.04506 4.28887 7.98654 3.74601 8.03085 3.71234C7.49919 2.92601 6.66848 2.83734 6.38048 2.81507Z" fill="#000008"/>
<path d="M12.8425 1.27052C14.4556 1.27052 15.5788 2.38242 15.5788 4.00125C15.5788 5.62587 14.4325 6.74354 12.8021 6.74354H11.0161V9.58373H9.72578V1.27052L12.8425 1.27052ZM11.0161 5.66043H12.4967C13.6202 5.66043 14.2596 5.05559 14.2596 4.00703C14.2596 2.95859 13.6202 2.35941 12.5025 2.35941H11.0161V5.66043Z" fill="#000008"/>
<path d="M15.9159 7.8612C15.9159 6.80109 16.7283 6.15013 18.1686 6.06945L19.8277 5.97156V5.50495C19.8277 4.83088 19.3725 4.42762 18.6122 4.42762C17.8919 4.42762 17.4426 4.77321 17.3332 5.31482H16.158C16.2271 4.22015 17.1603 3.41362 18.6582 3.41362C20.1273 3.41362 21.0663 4.19137 21.0663 5.40694V9.58371H19.8737V8.58705H19.845C19.4937 9.26112 18.7274 9.68739 17.9324 9.68739C16.7456 9.68739 15.9159 8.94998 15.9159 7.8612ZM19.8277 7.31392V6.83576L18.3355 6.92788C17.5923 6.97977 17.1719 7.30814 17.1719 7.82664C17.1719 8.35658 17.6097 8.70228 18.278 8.70228C19.1478 8.70228 19.8277 8.10311 19.8277 7.31392Z" fill="#000008"/>
<path d="M22.1922 11.8133V10.8051C22.2842 10.8281 22.4915 10.8281 22.5953 10.8281C23.1714 10.8281 23.4825 10.5861 23.6725 9.96397C23.6725 9.95242 23.7821 9.59527 23.7821 9.58949L21.593 3.52307H22.9409L24.4735 8.45459H24.4964L26.029 3.52307H27.3425L25.0724 9.90052C24.5542 11.3697 23.955 11.8421 22.6991 11.8421C22.5953 11.8421 22.2842 11.8305 22.1922 11.8133Z" fill="#000008"/>
</svg>
