<svg width="20" height="16" viewBox="0 0 20 16" fill="none" xmlns="http://www.w3.org/2000/svg">
<path d="M7.70406 0.454104L0.954061 7.2041C0.849182 7.30862 0.765966 7.43281 0.709186 7.56956C0.652405 7.7063 0.623175 7.85291 0.623175 8.00098C0.623175 8.14904 0.652405 8.29565 0.709186 8.4324C0.765966 8.56915 0.849182 8.69334 0.954061 8.79785L7.70406 15.5479C7.91541 15.7592 8.20205 15.8779 8.50094 15.8779C8.79982 15.8779 9.08647 15.7592 9.29781 15.5479C9.50916 15.3365 9.62789 15.0499 9.62789 14.751C9.62789 14.4521 9.50916 14.1654 9.29781 13.9541L4.46875 9.12504L18.25 9.12504C18.5484 9.12504 18.8345 9.00651 19.0455 8.79554C19.2565 8.58456 19.375 8.29841 19.375 8.00004C19.375 7.70167 19.2565 7.41552 19.0455 7.20455C18.8345 6.99357 18.5484 6.87504 18.25 6.87504L4.46875 6.87504L9.29875 2.04598C9.51009 1.83463 9.62883 1.54799 9.62883 1.2491C9.62883 0.950218 9.51009 0.663574 9.29875 0.45223C9.08741 0.240885 8.80076 0.122151 8.50187 0.122151C8.20299 0.122151 7.91634 0.240885 7.705 0.45223L7.70406 0.454104Z" fill="black"/>
</svg>
