<svg width="14" height="13" viewBox="0 0 14 13" fill="none" xmlns="http://www.w3.org/2000/svg">
<path fill-rule="evenodd" clip-rule="evenodd" d="M6.60685 0.226562C3.01591 0.226562 0.126953 3.11552 0.126953 6.70646C0.126953 9.56841 1.98992 11.9984 4.55488 12.8624C4.87888 12.9164 4.98688 12.7274 4.98688 12.5384C4.98688 12.3764 4.98688 11.9714 4.98688 11.4314C3.1779 11.8364 2.79991 10.5674 2.79991 10.5674C2.50291 9.81141 2.07092 9.62241 2.07092 9.62241C1.47693 9.21742 2.12492 9.21742 2.12492 9.21742C2.77291 9.27142 3.1239 9.89241 3.1239 9.89241C3.6909 10.8914 4.63588 10.5944 5.01387 10.4324C5.06787 10.0004 5.22987 9.73041 5.41887 9.56841C3.98789 9.40642 2.47592 8.83942 2.47592 6.35546C2.47592 5.65347 2.71891 5.05948 3.1509 4.62749C3.09691 4.46549 2.85391 3.8175 3.2049 2.89952C3.2049 2.89952 3.74489 2.73752 4.98688 3.57451C5.49987 3.43951 6.06686 3.35851 6.60685 3.35851C7.14684 3.35851 7.71383 3.43951 8.22682 3.57451C9.4688 2.73752 10.0088 2.89952 10.0088 2.89952C10.3598 3.79051 10.1438 4.43849 10.0628 4.62749C10.4678 5.08648 10.7378 5.65347 10.7378 6.35546C10.7378 8.83942 9.22581 9.37942 7.76783 9.54141C8.01083 9.73041 8.19982 10.1354 8.19982 10.7294C8.19982 11.5934 8.19982 12.2954 8.19982 12.5114C8.19982 12.6734 8.30782 12.8894 8.65882 12.8354C11.2238 11.9984 13.0867 9.56841 13.0867 6.70646C13.0867 3.11552 10.1978 0.226562 6.60685 0.226562Z" fill="black"/>
</svg>
