<svg width="29" height="13" viewBox="0 0 29 13" fill="none" xmlns="http://www.w3.org/2000/svg">
<path d="M13.751 9.6143H12.7025V1.45605H15.482C16.1864 1.45605 16.7871 1.69086 17.2785 2.16048C17.7809 2.6301 18.0321 3.20347 18.0321 3.88059C18.0321 4.5741 17.7809 5.14747 17.2785 5.61163C16.7925 6.07578 16.1919 6.30513 15.482 6.30513H13.751V9.6143ZM13.751 2.46082V5.30583H15.5038C15.9188 5.30583 16.2683 5.16385 16.5414 4.88536C16.8198 4.60686 16.9618 4.2683 16.9618 3.88605C16.9618 3.50926 16.8198 3.17616 16.5414 2.89767C16.2683 2.60825 15.9243 2.46628 15.5038 2.46628H13.751V2.46082Z" fill="#3C4043"/>
<path d="M20.7732 3.84783C21.5487 3.84783 22.1603 4.05533 22.608 4.47034C23.0558 4.88536 23.2797 5.45327 23.2797 6.17408V9.6143H22.2804V8.83888H22.2367C21.8053 9.47778 21.2265 9.7945 20.5057 9.7945C19.8886 9.7945 19.3753 9.6143 18.9603 9.24844C18.5453 8.88257 18.3378 8.42933 18.3378 7.88327C18.3378 7.30443 18.5562 6.84574 18.9931 6.50718C19.4299 6.16315 20.0142 5.99387 20.7405 5.99387C21.363 5.99387 21.8763 6.10855 22.2749 6.3379V6.09762C22.2749 5.73176 22.1329 5.42596 21.8435 5.16931C21.5541 4.91266 21.2156 4.78706 20.8279 4.78706C20.2436 4.78706 19.7794 5.03279 19.4408 5.52972L18.518 4.95088C19.0258 4.21369 19.7794 3.84783 20.7732 3.84783ZM19.419 7.89965C19.419 8.17268 19.5337 8.40203 19.7685 8.58223C19.9978 8.76243 20.2709 8.85527 20.5821 8.85527C21.0244 8.85527 21.4176 8.69145 21.7616 8.36381C22.1056 8.03616 22.2804 7.65392 22.2804 7.2116C21.9527 6.95495 21.4995 6.8239 20.9152 6.8239C20.4893 6.8239 20.1343 6.92765 19.8504 7.12969C19.561 7.34266 19.419 7.59931 19.419 7.89965Z" fill="#3C4043"/>
<path d="M28.9807 4.02808L25.4858 12.0662H24.4046L25.7043 9.25395L23.3999 4.02808H24.5412L26.2012 8.03622H26.223L27.8394 4.02808H28.9807Z" fill="#3C4043"/>
<path d="M9.58059 5.64439C9.58059 5.30256 9.55001 4.97546 9.49322 4.66093H5.09849V6.46295L7.6295 6.46349C7.52684 7.06308 7.19647 7.5742 6.69027 7.91494V9.08407H8.19686C9.07657 8.26989 9.58059 7.06635 9.58059 5.64439Z" fill="#4285F4"/>
<path d="M6.6908 7.915C6.27143 8.19786 5.73137 8.36332 5.09957 8.36332C3.87912 8.36332 2.84378 7.54094 2.473 6.43242H0.918898V7.63814C1.68885 9.16604 3.27135 10.2145 5.09957 10.2145C6.36316 10.2145 7.42471 9.79893 8.1974 9.08358L6.6908 7.915Z" fill="#34A853"/>
<path d="M2.32661 5.5379C2.32661 5.22664 2.37848 4.92576 2.47295 4.64289V3.43718H0.918851C0.600495 4.06898 0.421387 4.78214 0.421387 5.5379C0.421387 6.29366 0.601041 7.00682 0.918851 7.63862L2.47295 6.4329C2.37848 6.15004 2.32661 5.84916 2.32661 5.5379Z" fill="#FABB05"/>
<path d="M5.09957 2.71201C5.78925 2.71201 6.40685 2.94955 6.89448 3.41371L8.22961 2.07966C7.41871 1.32445 6.36153 0.86084 5.09957 0.86084C3.27189 0.86084 1.6888 1.90928 0.918851 3.43718L2.47295 4.64289C2.84373 3.53438 3.87912 2.71201 5.09957 2.71201Z" fill="#E94235"/>
</svg>
