<svg width="26" height="16" viewBox="0 0 26 16" fill="none" xmlns="http://www.w3.org/2000/svg">
<path d="M16.2699 1.84839H9.40663V14.1819H16.2699V1.84839Z" fill="#FF5F00"/>
<path d="M9.84245 8.01514C9.84137 6.82733 10.1105 5.65485 10.6296 4.58644C11.1486 3.51804 11.9039 2.58173 12.8383 1.84838C11.6812 0.938865 10.2915 0.37325 8.82815 0.216185C7.36478 0.0591194 5.88674 0.316937 4.56296 0.96018C3.23919 1.60342 2.1231 2.60614 1.34226 3.8537C0.561418 5.10127 0.147339 6.54336 0.147339 8.01514C0.147339 9.48692 0.561418 10.929 1.34226 12.1766C2.1231 13.4241 3.23919 14.4269 4.56296 15.0701C5.88674 15.7133 7.36478 15.9712 8.82815 15.8141C10.2915 15.657 11.6812 15.0914 12.8383 14.1819C11.9039 13.4485 11.1486 12.5122 10.6296 11.4438C10.1105 10.3754 9.84137 9.20294 9.84245 8.01514Z" fill="#EB001B"/>
<path d="M25.5289 8.01514C25.5289 9.48689 25.1149 10.929 24.3341 12.1765C23.5533 13.4241 22.4372 14.4268 21.1135 15.0701C19.7897 15.7133 18.3117 15.9712 16.8484 15.8141C15.385 15.657 13.9954 15.0914 12.8383 14.1819C13.7719 13.4478 14.5266 12.5113 15.0455 11.4431C15.5645 10.3749 15.8341 9.20275 15.8341 8.01514C15.8341 6.82752 15.5645 5.6554 15.0455 4.58717C14.5266 3.51893 13.7719 2.58247 12.8383 1.84838C13.9954 0.938864 15.385 0.373246 16.8484 0.216183C18.3117 0.0591193 19.7897 0.316948 21.1135 0.960198C22.4372 1.60345 23.5533 2.60616 24.3341 3.85373C25.1149 5.1013 25.5289 6.54338 25.5289 8.01514Z" fill="#F79E1B"/>
<path d="M24.7805 12.8756V12.6231H24.8824V12.5716H24.6231V12.6231H24.7249V12.8756H24.7805ZM25.284 12.8756V12.5711H25.2045L25.1131 12.7805L25.0216 12.5711H24.9421V12.8756H24.9982V12.6459L25.0839 12.8439H25.1421L25.2279 12.6454V12.8756H25.284Z" fill="#F79E1B"/>
</svg>
