<svg width="35" height="10" viewBox="0 0 35 10" fill="none" xmlns="http://www.w3.org/2000/svg">
<path fill-rule="evenodd" clip-rule="evenodd" d="M4.42569 0.645996H1.7382C1.55429 0.645996 1.39788 0.779641 1.3692 0.961111L0.282238 7.85185C0.260634 7.98786 0.365947 8.11042 0.503883 8.11042H1.78692C1.97083 8.11042 2.12724 7.97677 2.15592 7.79494L2.44908 5.93642C2.47736 5.75441 2.63416 5.62094 2.81768 5.62094H3.66845C5.4388 5.62094 6.46046 4.76433 6.72742 3.06692C6.84762 2.32431 6.73251 1.74081 6.38462 1.33205C6.00273 0.883467 5.32514 0.645996 4.42569 0.645996ZM4.73575 3.16274C4.58881 4.127 3.85198 4.127 3.13953 4.127H2.73398L3.01849 2.32613C3.03538 2.21739 3.12969 2.13721 3.23973 2.13721H3.4256C3.91092 2.13721 4.36877 2.13721 4.60536 2.41377C4.7463 2.57888 4.78958 2.82399 4.73575 3.16274ZM12.4593 3.13183H11.1723C11.0626 3.13183 10.9679 3.21202 10.951 3.32094L10.8941 3.68079L10.804 3.55041C10.5254 3.14601 9.90422 3.01091 9.2841 3.01091C7.86182 3.01091 6.64722 4.08791 6.41063 5.59876C6.28769 6.35227 6.46246 7.07288 6.88999 7.57546C7.28225 8.0375 7.84345 8.23006 8.51104 8.23006C9.6569 8.23006 10.2925 7.49327 10.2925 7.49327L10.235 7.85094C10.2134 7.98768 10.3187 8.11023 10.4558 8.11023H11.6151C11.7995 8.11023 11.955 7.97659 11.9841 7.79475L12.6797 3.3904C12.7017 3.25493 12.5968 3.13183 12.4593 3.13183ZM10.6653 5.63639C10.5411 6.37154 9.95751 6.86504 9.21336 6.86504C8.83965 6.86504 8.54086 6.74521 8.34919 6.51811C8.15897 6.29263 8.08659 5.97152 8.14715 5.61403C8.26317 4.88507 8.85656 4.37557 9.58944 4.37557C9.95478 4.37557 10.2519 4.49685 10.4476 4.72596C10.6436 4.95743 10.7215 5.28037 10.6653 5.63639ZM18.0202 3.13165H19.3135C19.4947 3.13165 19.6003 3.33476 19.4974 3.48332L15.196 9.69145C15.1263 9.792 15.0116 9.85183 14.889 9.85183H13.5973C13.4155 9.85183 13.3093 9.64708 13.4146 9.49816L14.7539 7.60783L13.3294 3.42785C13.2802 3.28257 13.3875 3.13165 13.542 3.13165H14.8128C14.978 3.13165 15.1236 3.24002 15.1713 3.39804L15.9272 5.9226L17.711 3.29548C17.7809 3.19293 17.8969 3.13165 18.0202 3.13165Z" fill="#253B80"/>
<path fill-rule="evenodd" clip-rule="evenodd" d="M32.0427 7.85123L33.1457 0.834488C33.1626 0.72557 33.257 0.645383 33.3666 0.64502H34.6083C34.7455 0.64502 34.8507 0.767938 34.8291 0.903949L33.7414 7.79432C33.7131 7.97615 33.5567 8.1098 33.3725 8.1098H32.2635C32.1264 8.1098 32.0211 7.98724 32.0427 7.85123ZM23.5958 0.64538H20.9078C20.7243 0.64538 20.5679 0.779028 20.5392 0.960497L19.4523 7.85123C19.4306 7.98724 19.5359 8.1098 19.6732 8.1098H21.0524C21.1806 8.1098 21.2903 8.01634 21.3103 7.88905L21.6187 5.93581C21.6471 5.75379 21.8038 5.62033 21.9873 5.62033H22.8377C24.6084 5.62033 25.6298 4.76371 25.897 3.0663C26.0176 2.3237 25.9017 1.7402 25.554 1.33144C25.1723 0.882855 24.4953 0.64538 23.5958 0.64538ZM23.9059 3.16213C23.7593 4.12639 23.0224 4.12639 22.3096 4.12639H21.9044L22.1893 2.32552C22.2063 2.21678 22.2997 2.13659 22.4101 2.13659H22.596C23.081 2.13659 23.5393 2.13659 23.7757 2.41316C23.9168 2.57826 23.9597 2.82338 23.9059 3.16213ZM31.6287 3.13122H30.3426C30.232 3.13122 30.1382 3.21141 30.1216 3.32032L30.0647 3.68017L29.9743 3.5498C29.6957 3.1454 29.0749 3.0103 28.4548 3.0103C27.0325 3.0103 25.8182 4.0873 25.5817 5.59815C25.4591 6.35166 25.6331 7.07226 26.0607 7.57485C26.4536 8.03689 27.0141 8.22945 27.6817 8.22945C28.8276 8.22945 29.463 7.49266 29.463 7.49266L29.4057 7.85033C29.384 7.98707 29.4893 8.10962 29.6274 8.10962H30.7861C30.9696 8.10962 31.126 7.97597 31.1548 7.79414L31.8507 3.38979C31.872 3.25432 31.7667 3.13122 31.6287 3.13122ZM29.8349 5.63578C29.7114 6.37093 29.1271 6.86443 28.3828 6.86443C28.0098 6.86443 27.7104 6.7446 27.5186 6.51749C27.3284 6.29202 27.2569 5.9709 27.3167 5.61342C27.4333 4.88445 28.026 4.37496 28.7588 4.37496C29.1243 4.37496 29.4213 4.49624 29.6172 4.72535C29.8139 4.95682 29.8918 5.27975 29.8349 5.63578Z" fill="#179BD7"/>
</svg>
