<svg width="34" height="12" viewBox="0 0 34 12" fill="none" xmlns="http://www.w3.org/2000/svg">
<path d="M17.0221 1.12099L14.8479 11.2845H12.2188L14.3933 1.12099H17.0221ZM28.0838 7.68363L29.468 3.86687L30.2645 7.68363H28.0838ZM31.0172 11.2845H33.4491L31.327 1.12099H29.0823C28.5779 1.12099 28.1523 1.41437 27.9628 1.86665L24.0184 11.2845H26.7794L27.3275 9.76684H30.7007L31.0172 11.2845ZM24.1554 7.96607C24.1667 5.28356 20.4458 5.13591 20.4715 3.93764C20.4792 3.57253 20.827 3.18523 21.5865 3.08583C21.9638 3.03661 23.0012 2.99897 24.1792 3.54101L24.6405 1.38574C24.0078 1.15605 23.1936 0.935059 22.1809 0.935059C19.5824 0.935059 17.7533 2.31668 17.7379 4.29503C17.7215 5.75804 19.0436 6.57447 20.0398 7.06085C21.0641 7.55914 21.4083 7.87825 21.4038 8.32378C21.397 9.00607 20.5867 9.30652 19.8307 9.31842C18.5086 9.33933 17.7414 8.96167 17.1299 8.67666L16.6535 10.9037C17.2676 11.1858 18.4015 11.4309 19.5779 11.4435C22.3395 11.4435 24.1464 10.0789 24.1554 7.96607ZM13.2652 1.12099L9.00549 11.2845H6.22584L4.12976 3.17332C4.00237 2.67375 3.89171 2.49104 3.50473 2.28033C2.87327 1.93774 1.82941 1.61574 0.911011 1.4163L0.973739 1.12099H5.44737C6.01739 1.12099 6.53047 1.50058 6.65979 2.15713L7.76702 8.03877L10.5029 1.12099H13.2652Z" fill="#1434CB"/>
</svg>
