<svg width="12" height="10" viewBox="0 0 12 10" fill="none" xmlns="http://www.w3.org/2000/svg">
<path d="M11.2071 1.9831C10.7881 2.16933 10.3458 2.28573 9.88023 2.35557C10.3458 2.07622 10.7183 1.63392 10.8812 1.0985C10.4389 1.35457 9.95006 1.5408 9.41465 1.6572C8.99562 1.2149 8.39037 0.935547 7.73856 0.935547C6.48149 0.935547 5.45721 1.95982 5.45721 3.21689C5.45721 3.40312 5.48049 3.56608 5.52705 3.72903C3.64145 3.63591 1.94208 2.72803 0.801411 1.33129C0.615178 1.68048 0.498783 2.05294 0.498783 2.47196C0.498783 3.26345 0.894527 3.96182 1.52306 4.38084C1.1506 4.35756 0.801411 4.26445 0.475504 4.10149V4.12477C0.475504 5.24216 1.26699 6.17333 2.31455 6.38284C2.12831 6.42939 1.9188 6.45267 1.70929 6.45267C1.56962 6.45267 1.40666 6.42939 1.26699 6.40612C1.56962 7.314 2.40766 7.98909 3.40866 7.98909C2.61717 8.59434 1.63945 8.96681 0.56862 8.96681C0.382388 8.96681 0.196156 8.96681 0.0332031 8.94353C1.05748 9.59534 2.24471 9.96781 3.54833 9.96781C7.76184 9.96781 10.0665 6.47595 10.0665 3.44968C10.0665 3.35656 10.0665 3.24017 10.0665 3.14705C10.5088 2.84443 10.9045 2.44868 11.2071 1.9831Z" fill="black"/>
</svg>
